<svg width="14" height="17" viewBox="0 0 14 17" fill="none" xmlns="http://www.w3.org/2000/svg">
<path fill-rule="evenodd" clip-rule="evenodd" d="M3.47028 0.166337H9.8626C10.3041 0.166326 10.6802 0.166317 10.9888 0.191536C11.3131 0.218033 11.6286 0.276061 11.9302 0.42974C12.385 0.661434 12.7547 1.03114 12.9863 1.48586C13.14 1.78747 13.1981 2.10297 13.2246 2.42727C13.2498 2.73596 13.2498 3.11194 13.2497 3.5535V15.9163C13.2497 16.1872 13.1037 16.4371 12.8676 16.57C12.6315 16.7028 12.3421 16.698 12.1105 16.5574L6.66644 13.2521L1.22236 16.5574C0.990795 16.698 0.701407 16.7028 0.465316 16.57C0.229226 16.4371 0.0831304 16.1872 0.0831304 15.9163V3.5535C0.0831191 3.11197 0.0831096 2.73595 0.10833 2.42727C0.134826 2.10297 0.192854 1.78747 0.346532 1.48586C0.578225 1.03114 0.947927 0.661434 1.40265 0.42974C1.70426 0.276061 2.01975 0.218033 2.34405 0.191536C2.65273 0.166317 3.02876 0.166326 3.47028 0.166337ZM3.16648 1.6664C2.48768 1.6664 2.32615 1.67565 2.21655 1.71126C1.93749 1.80193 1.71869 2.02073 1.62802 2.2998C1.59241 2.4094 1.58315 2.57093 1.58315 3.24973V14.5836L6.27724 11.7336C6.51641 11.5884 6.81653 11.5884 7.0557 11.7336L11.7498 14.5836V3.24973C11.7498 2.57093 11.7405 2.4094 11.7049 2.2998C11.6142 2.02073 11.3955 1.80193 11.1164 1.71126C11.0068 1.67565 10.8453 1.6664 10.1665 1.6664H3.16648Z" fill="#292A2D" fill-opacity="0.88"/>
</svg>
