<svg width="21" height="20" viewBox="0 0 21 20" fill="none" xmlns="http://www.w3.org/2000/svg">
<path fill-rule="evenodd" clip-rule="evenodd" d="M7.47034 2.16632H13.8627C14.3042 2.16631 14.6802 2.1663 14.9889 2.19152C15.3132 2.21802 15.6287 2.27605 15.9303 2.42972C16.385 2.66142 16.7547 3.03112 16.9864 3.48585C17.1401 3.78746 17.1981 4.10295 17.2246 4.42725C17.2498 4.73594 17.2498 5.11193 17.2498 5.55349V17.9163C17.2498 18.1872 17.1037 18.4371 16.8676 18.5699C16.6315 18.7028 16.3421 18.698 16.1106 18.5574L10.6665 15.2521L5.22242 18.5574C4.99086 18.698 4.70147 18.7028 4.46538 18.5699C4.22929 18.4371 4.08319 18.1872 4.08319 17.9163V5.55349C4.08318 5.11195 4.08317 4.73593 4.10839 4.42725C4.13489 4.10295 4.19292 3.78746 4.34659 3.48585C4.57829 3.03112 4.94799 2.66142 5.40271 2.42972C5.70432 2.27605 6.01981 2.21802 6.34411 2.19152C6.65279 2.1663 7.02882 2.16631 7.47034 2.16632ZM7.16654 3.66638C6.48774 3.66638 6.32622 3.67563 6.21661 3.71124C5.93755 3.80192 5.71875 4.02071 5.62808 4.29978C5.59247 4.40938 5.58322 4.57091 5.58322 5.24971V16.5836L10.2773 13.7336C10.5165 13.5884 10.8166 13.5884 11.0558 13.7336L15.7498 16.5836V5.24971C15.7498 4.57091 15.7406 4.40938 15.705 4.29978C15.6143 4.02071 15.3955 3.80192 15.1164 3.71124C15.0068 3.67563 14.8453 3.66638 14.1665 3.66638H7.16654Z" fill="#292A2D" fill-opacity="0.88"/>
</svg>
