<svg width="24" height="24" viewBox="0 0 24 24" fill="none" xmlns="http://www.w3.org/2000/svg">
<path d="M9.63637 8.36409C9.2849 8.01262 8.71506 8.01262 8.36359 8.36409C8.01211 8.71556 8.01211 9.28541 8.36358 9.63688L10.7272 12.0005L8.36358 14.3641C8.01211 14.7156 8.01211 15.2854 8.36359 15.6369C8.71506 15.9884 9.2849 15.9884 9.63637 15.6369L12 13.2733L14.3636 15.6369C14.715 15.9884 15.2849 15.9884 15.6364 15.6369C15.9878 15.2854 15.9878 14.7156 15.6364 14.3641L13.2728 12.0005L15.6364 9.63688C15.9878 9.28541 15.9878 8.71556 15.6364 8.36409C15.2849 8.01262 14.715 8.01262 14.3636 8.36409L12 10.7277L9.63637 8.36409Z" fill="#171719"/>
<path fill-rule="evenodd" clip-rule="evenodd" d="M12 2.1001C6.53237 2.1001 2.10001 6.53248 2.10001 12.0001C2.10001 17.4677 6.53237 21.9001 12 21.9001C17.4676 21.9001 21.8999 17.4677 21.8999 12.0001C21.8999 6.53248 17.4676 2.1001 12 2.1001ZM3.9 12.0001C3.9 7.52659 7.52648 3.9001 12 3.9001C16.4735 3.9001 20.0999 7.52659 20.0999 12.0001C20.0999 16.4736 16.4735 20.1001 12 20.1001C7.52648 20.1001 3.9 16.4736 3.9 12.0001Z" fill="#171719"/>
</svg>
