<svg width="12" height="12" viewBox="0 0 12 12" fill="none" xmlns="http://www.w3.org/2000/svg">
<path fill-rule="evenodd" clip-rule="evenodd" d="M0.37085 6.00006C0.37085 2.89116 2.8911 0.370895 5.99999 0.370895C9.10888 0.370895 11.6291 2.89116 11.6291 6.00006C11.6291 6.89743 11.4188 7.747 11.0444 8.5009L11.3327 9.55814C11.398 9.79738 11.4562 10.0109 11.4872 10.1862C11.5185 10.3639 11.5399 10.5891 11.454 10.814C11.3415 11.1088 11.1087 11.3416 10.8139 11.4541C10.589 11.54 10.3638 11.5186 10.1861 11.4873C10.0108 11.4563 9.79734 11.3981 9.55806 11.3328L8.50082 11.0445C7.74692 11.4189 6.89735 11.6292 5.99999 11.6292C2.8911 11.6292 0.37085 9.10897 0.37085 6.00006ZM3.14147 4.83334C3.14147 4.54339 3.37652 4.30834 3.66647 4.30834H8.33312C8.62307 4.30834 8.85812 4.54339 8.85812 4.83334C8.85812 5.12329 8.62307 5.35834 8.33312 5.35834H3.66647C3.37652 5.35834 3.14147 5.12329 3.14147 4.83334ZM3.14147 7.16667C3.14147 6.87672 3.37652 6.64167 3.66647 6.64167H6.43729C6.72724 6.64167 6.96229 6.87672 6.96229 7.16667C6.96229 7.45662 6.72724 7.69167 6.43729 7.69167H3.66647C3.37652 7.69167 3.14147 7.45662 3.14147 7.16667Z" fill="#37383C" fill-opacity="0.61"/>
</svg>
