<svg width="14" height="14" viewBox="0 0 14 14" fill="none" xmlns="http://www.w3.org/2000/svg">
<path d="M5.77487 7.00011C5.77487 6.32357 6.32332 5.77511 6.99987 5.77511C7.67642 5.77511 8.22487 6.32357 8.22487 7.00011C8.22487 7.67666 7.67642 8.22511 6.99987 8.22511C6.32332 8.22511 5.77487 7.67666 5.77487 7.00011Z" fill="#37383C" fill-opacity="0.61"/>
<path fill-rule="evenodd" clip-rule="evenodd" d="M12.888 7.36993C12.9854 7.13271 12.9854 6.86646 12.888 6.62925C11.9379 4.3138 9.66101 2.68311 7.00323 2.68311C4.34544 2.68311 2.06852 4.3138 1.11841 6.62925C1.02108 6.86646 1.02108 7.13271 1.11841 7.36993C2.06852 9.68538 4.34544 11.3161 7.00323 11.3161C9.66101 11.3161 11.9379 9.68538 12.888 7.36993ZM6.99987 4.72511C5.74342 4.72511 4.72487 5.74367 4.72487 7.00011C4.72487 8.25656 5.74342 9.27511 6.99987 9.27511C8.25632 9.27511 9.27487 8.25656 9.27487 7.00011C9.27487 5.74367 8.25632 4.72511 6.99987 4.72511Z" fill="#37383C" fill-opacity="0.61"/>
</svg>
