<svg width="14" height="14" viewBox="0 0 14 14" fill="none" xmlns="http://www.w3.org/2000/svg">
<path fill-rule="evenodd" clip-rule="evenodd" d="M6.77169 1.4071C7.13627 0.832887 7.93899 0.71254 8.44854 1.187C10.8381 3.41198 12.3371 5.54685 12.3371 7.93386C12.3371 10.8012 10.1079 13.0672 6.99959 13.0672C5.46393 13.0672 4.12587 12.5431 3.16857 11.6227C2.21005 10.7012 1.66211 9.40969 1.66211 7.93386C1.66211 6.34394 2.31043 4.82039 3.4179 3.65333C3.78435 3.26716 4.3678 3.28393 4.73115 3.61093L5.13924 3.97822L6.77169 1.4071ZM4.95793 9.1003C4.95793 10.2086 5.8621 11.0836 6.99959 11.0836C8.13709 11.0836 9.04125 10.2086 9.04125 9.1003C9.04125 7.99197 8.13709 7.11697 6.99959 6.1253C5.8621 7.11697 4.95793 7.99197 4.95793 9.1003Z" fill="#37383C" fill-opacity="0.61"/>
</svg>
