<svg width="24" height="24" viewBox="0 0 24 24" fill="none" xmlns="http://www.w3.org/2000/svg">
<path d="M4.00009 4.84949C3.50304 4.84949 3.1001 5.25243 3.1001 5.74949C3.1001 6.24654 3.50304 6.64949 4.00009 6.64949H20C20.4971 6.64949 20.9 6.24654 20.9 5.74949C20.9 5.25243 20.4971 4.84949 20 4.84949H4.00009Z" fill="#171719"/>
<path d="M3.10011 11.9997C3.10011 11.5026 3.50305 11.0997 4.00011 11.0997H20C20.4971 11.0997 20.9 11.5026 20.9 11.9997C20.9 12.4967 20.4971 12.8997 20 12.8997H4.00011C3.50305 12.8997 3.10011 12.4967 3.10011 11.9997Z" fill="#171719"/>
<path d="M3.10011 18.2494C3.10011 17.7523 3.50305 17.3494 4.0001 17.3494H20C20.4971 17.3494 20.9 17.7523 20.9 18.2494C20.9 18.7464 20.4971 19.1494 20 19.1494H4.0001C3.50305 19.1494 3.10011 18.7464 3.10011 18.2494Z" fill="#171719"/>
</svg>
