<svg width="14" height="18" viewBox="0 0 14 18" fill="none" xmlns="http://www.w3.org/2000/svg">
<path d="M1.51685 8.99896C1.51685 5.9706 3.97181 3.51562 7.00016 3.51562C8.06017 3.51562 9.05034 3.81675 9.88921 4.33769L10.443 3.78387C10.5932 3.63372 10.819 3.5888 11.0152 3.67006C11.2113 3.75132 11.3393 3.94276 11.3393 4.1551V6.01125C11.3393 6.15049 11.2839 6.28403 11.1855 6.38249C11.087 6.48094 10.9535 6.53625 10.8143 6.53625H8.95811C8.74576 6.53625 8.55433 6.40834 8.47307 6.21216C8.39181 6.01598 8.43673 5.79017 8.58688 5.64002L9.12175 5.10515C8.4916 4.76101 7.76889 4.56562 7.00016 4.56562C4.55171 4.56562 2.56684 6.5505 2.56684 8.99896C2.56684 9.29617 2.59601 9.58605 2.65149 9.86605C2.70785 10.1505 2.52297 10.4267 2.23855 10.4831C1.95413 10.5394 1.67788 10.3545 1.62152 10.0701C1.5528 9.72328 1.51685 9.36506 1.51685 8.99896Z" fill="#37383C" fill-opacity="0.61"/>
<path d="M11.7619 7.51678C12.0463 7.46044 12.3225 7.64534 12.3789 7.92976C12.4475 8.27652 12.4835 8.63465 12.4835 9.00065C12.4835 12.029 10.0285 14.484 7.00017 14.484C5.94047 14.484 4.95057 14.183 4.11185 13.6624L3.55586 14.2184C3.40571 14.3685 3.1799 14.4134 2.98372 14.3322C2.78754 14.2509 2.65963 14.0595 2.65963 13.8471L2.65963 11.991C2.65963 11.8518 2.71494 11.7182 2.8134 11.6198C2.91186 11.5213 3.04539 11.466 3.18463 11.466H5.04078C5.25312 11.466 5.44455 11.5939 5.52581 11.7901C5.60707 11.9863 5.56216 12.2121 5.41201 12.3622L4.87935 12.8949C5.50931 13.2388 6.23175 13.434 7.00017 13.434C9.44862 13.434 11.4335 11.4491 11.4335 9.00065C11.4335 8.70352 11.4043 8.41372 11.3489 8.13379C11.2925 7.84937 11.4774 7.57312 11.7619 7.51678Z" fill="#37383C" fill-opacity="0.61"/>
</svg>
